<?xml version="1.0" encoding="UTF-8"?>
<!DOCTYPE svg PUBLIC "-//W3C//DTD SVG 1.1//EN" "http://www.w3.org/Graphics/SVG/1.1/DTD/svg11.dtd">
<!-- Creator: CorelDRAW 2018 (64-Bit) -->
<svg xmlns="http://www.w3.org/2000/svg" xml:space="preserve" width="68.8238mm" height="8.612mm" version="1.1" style="shape-rendering:geometricPrecision; text-rendering:geometricPrecision; image-rendering:optimizeQuality; fill-rule:evenodd; clip-rule:evenodd"
viewBox="0 0 5862.14 733.54"
 xmlns:xlink="http://www.w3.org/1999/xlink">
 <defs>
  <style type="text/css">
   <![CDATA[
    .fil1 {fill:#D83135}
    .fil0 {fill:#08558C}
   ]]>
  </style>
 </defs>
 <g id="Layer_x0020_3">
  <metadata id="CorelCorpID_0Corel-Layer"/>
  <g id="_1971292655952">
   <path class="fil0" d="M4270.34 0c-126.21,0.67 -214.4,46.91 -264.62,138.8 -20.49,38.26 -33.03,84.21 -37.66,137.72l0 115.97c3.31,40.98 13.52,76.28 30.71,106.04 40.3,71.36 129.87,106.7 268.61,106.05l600.62 0 0 -109.04 -376.65 0c-103.07,-4.62 -155.24,-38.97 -156.6,-103.05l0 -187.33c17.21,-62.79 73.01,-94.15 167.52,-94.15l365.73 0 0 -111.01 -597.66 0z"/>
   <path class="fil0" d="M3318.76 0c-66.24,0 -138.74,23.47 -217.39,70.4 -78.69,46.92 -119.43,125.62 -122.18,236.05l0 298.11 563.18 0c66.22,0 138.69,-23.47 217.36,-70.4 78.72,-46.93 119.41,-125.61 122.19,-236.01l0 -298.15 -563.17 0zm308.92 338.21c0,60.75 -15.89,102.13 -47.65,124.22 -31.75,22.06 -83.52,33.12 -155.29,33.12l-191.29 0 0 -227.34c0,-60.73 15.88,-102.17 47.63,-124.25 31.77,-22.04 83.5,-33.1 155.28,-33.1l191.31 0 0 227.36z"/>
   <polygon class="fil0" points="5646.05,0 5646.05,253.73 5328.88,253.73 5328.88,0 4962.16,0 4962.16,604.59 5328.88,604.59 5328.88,352.84 5646.05,352.84 5646.05,604.59 5862.13,604.59 5862.13,0 "/>
   <path class="fil0" d="M1894.09 182.34l0 -182.34 -210.15 0 0 126.45c72.95,14.34 143.1,33.4 210.15,55.88z"/>
   <path class="fil0" d="M1389.98 97.13c19.28,0.03 38.38,0.56 57.38,1.32l-35.95 -40.96c-33.71,-38.33 -86.89,-57.49 -159.59,-57.49l-257.68 0 0 156.82c130.57,-38.94 262.94,-59.97 395.85,-59.69z"/>
   <path class="fil0" d="M414.04 449.78c156.34,-111.71 319.5,-200.81 485.93,-261.76l0 -188.02 -465.82 0c-52.83,0 -93.51,24.09 -121.94,72.37l-312.2 532.21 216.07 0c76.47,-65.8 161.77,-128.96 197.96,-154.81zm97.43 -340.75l21.79 0 0 147.6c-60.87,35.1 -120.96,73.83 -180.13,116.12l158.34 -263.72z"/>
   <path class="fil0" d="M2672.14 253.73l-317.17 0 0 -253.73 -366.71 0 0 216.86c462.8,184.36 754.8,516.68 754.8,516.68 0,0 -146.23,-179.45 -388.1,-359.1l0 -21.59 317.17 0 0 251.75 216.04 0 0 -604.59 -216.04 0 0 253.73z"/>
   <path class="fil1" d="M994.13 209.81l0 394.77 210.11 0 0 -360.75 264.66 298.34c37.63,41.59 88.18,62.42 151.62,62.42l273.57 0 0 -369.26c-67.04,-22.49 -137.19,-41.55 -210.15,-55.88l0 189.26 -187.7 -214.57c-34.92,-2.54 -70.34,-3.94 -106.27,-4.02 -132.91,-0.28 -265.28,20.74 -395.85,59.69z"/>
   <path class="fil1" d="M899.97 241.01c-124.6,45.64 -247.22,107.24 -366.71,182.04l0 181.54 366.71 0 0 -363.57z"/>
   <path class="fil1" d="M1988.26 604.59l366.71 0 0 -142.13c-104.73,-68.89 -228.05,-137.36 -366.71,-192.6l0 334.73z"/>
  </g>
 </g>
</svg>
